<svg width="20" height="20" viewBox="0 0 20 20" fill="none" xmlns="http://www.w3.org/2000/svg">
<mask id="mask0" mask-type="alpha" maskUnits="userSpaceOnUse" x="0" y="0" width="20" height="20">
<rect x="0.5" y="0.5" width="19" height="19" rx="1.5" fill="#9D9D9D" stroke="#A4A3AA"/>
</mask>
<g mask="url(#mask0)">
<path d="M10 16.5C13.5899 16.5 16.5 13.5899 16.5 10C16.5 6.41015 13.5899 3.5 10 3.5C6.41015 3.5 3.5 6.41015 3.5 10C3.5 11.0149 3.73258 11.9754 4.14734 12.8312C4.47125 13.4996 4.56985 14.2818 4.24721 14.9507L3.67297 16.1414C3.60152 16.2895 3.72947 16.4558 3.89097 16.4246L6.41253 15.9386C6.84634 15.8549 7.29191 15.9273 7.70525 16.0833C8.41881 16.3526 9.19219 16.5 10 16.5Z" stroke="#A4A3AA"/>
</g>
</svg>
