<svg width="28" height="28" viewBox="0 0 28 28" fill="none" xmlns="http://www.w3.org/2000/svg">
<mask id="mask0" mask-type="alpha" maskUnits="userSpaceOnUse" x="4" y="4" width="20" height="20">
<rect x="4.5" y="4.5" width="19" height="19" rx="1.5" fill="#9D9D9D" stroke="#504F5A"/>
</mask>
<g mask="url(#mask0)">
<path d="M14 20.5C17.5899 20.5 20.5 17.5899 20.5 14C20.5 10.4101 17.5899 7.5 14 7.5C10.4101 7.5 7.5 10.4101 7.5 14C7.5 15.0149 7.73258 15.9754 8.14734 16.8312C8.47125 17.4996 8.56985 18.2818 8.24721 18.9507L7.67297 20.1414C7.60152 20.2895 7.72947 20.4558 7.89097 20.4246L10.4125 19.9386C10.8463 19.8549 11.2919 19.9273 11.7053 20.0833C12.4188 20.3526 13.1922 20.5 14 20.5Z" stroke="#504F5A"/>
</g>
</svg>
