<svg width="28" height="28" viewBox="0 0 28 28" fill="none" xmlns="http://www.w3.org/2000/svg">
<mask id="mask0" mask-type="alpha" maskUnits="userSpaceOnUse" x="4" y="4" width="20" height="20">
<rect x="4.5" y="4.5" width="19" height="19" rx="1.5" fill="#9D9D9D" stroke="#504F5A"/>
</mask>
<g mask="url(#mask0)">
<path d="M19.6958 17.4371C19.8332 17.6913 19.6491 18 19.3602 18H8.63498C8.34832 18 8.16576 17.6937 8.30218 17.4415V17.4415C9.0171 16.118 9.39224 14.6294 9.39228 13.1158V11.827C9.39228 9.23658 11.3805 7.05469 13.902 7.00104C14.515 6.98782 15.1244 7.10041 15.6945 7.3322C16.2646 7.564 16.7839 7.91033 17.2221 8.35092C17.6602 8.7915 18.0082 9.31748 18.2459 9.89801C18.4836 10.4785 18.606 11.1019 18.6061 11.7317V13.1118C18.606 14.6252 18.9811 16.1137 19.6958 17.4371V17.4371Z" stroke="#504F5A"/>
<path d="M15.5 19.5C15.5 20.3284 14.8284 21 14 21C13.1716 21 12.5 20.3284 12.5 19.5" stroke="#504F5A"/>
</g>
</svg>
