<svg width="14" height="14" viewBox="0 0 14 14" fill="none" xmlns="http://www.w3.org/2000/svg">
<mask id="path-1-outside-1" maskUnits="userSpaceOnUse" x="0" y="0" width="14" height="14" fill="black">
<rect fill="white" width="14" height="14"/>
<path fill-rule="evenodd" clip-rule="evenodd" d="M7.85701 1.50282C7.85701 1.22512 7.63189 1 7.35419 1H6.64562C6.36788 1 6.14273 1.22515 6.14273 1.50289C6.14273 1.74851 5.96448 1.95557 5.72646 2.01621C5.24588 2.13866 4.79234 2.32878 4.3766 2.57584C4.16538 2.70136 3.89286 2.68093 3.71912 2.50719C3.52262 2.31069 3.20403 2.31069 3.00753 2.50719L2.50697 3.00775C2.31045 3.20427 2.31045 3.52289 2.50697 3.71941C2.68071 3.89315 2.70116 4.16569 2.57565 4.37692C2.32864 4.79265 2.13855 5.24617 2.01614 5.72672C1.95551 5.96473 1.74847 6.14299 1.50286 6.14299C1.22514 6.14299 1 6.36812 1 6.64584V7.35441C1 7.63213 1.22514 7.85727 1.50286 7.85727C1.74847 7.85727 1.95551 8.03552 2.01614 8.27354C2.13854 8.75405 2.32861 9.20753 2.57559 9.62324C2.70108 9.83444 2.68063 10.1069 2.50692 10.2806C2.31042 10.4771 2.31042 10.7957 2.50691 10.9922L3.00761 11.4929C3.20406 11.6894 3.52258 11.6894 3.71903 11.4929C3.89273 11.3192 4.1652 11.2988 4.37636 11.4243C4.79221 11.6714 5.24586 11.8616 5.72658 11.9841C5.96453 12.0447 6.14273 12.2517 6.14273 12.4972C6.14273 12.7749 6.36782 13 6.64548 13H7.35433C7.63196 13 7.85701 12.7749 7.85701 12.4973C7.85701 12.2518 8.03522 12.0448 8.27316 11.9842C8.75391 11.8618 9.2076 11.6716 9.62348 11.4245C9.83463 11.2991 10.1071 11.3195 10.2807 11.4932C10.4772 11.6896 10.7957 11.6896 10.9921 11.4932L11.493 10.9923C11.6894 10.7959 11.6894 10.4774 11.493 10.281C11.3193 10.1074 11.2989 9.83494 11.4243 9.6238C11.6715 9.20791 11.8617 8.7542 11.9841 8.27342C12.0448 8.03547 12.2517 7.85727 12.4973 7.85727C12.7749 7.85727 13 7.6322 13 7.35455V6.6457C13 6.36806 12.7749 6.14299 12.4973 6.14299C12.2517 6.14299 12.0448 5.96478 11.9841 5.72684C11.8617 5.24602 11.6715 4.79228 11.4243 4.37636C11.2988 4.1652 11.3192 3.89273 11.4929 3.71903C11.6893 3.52258 11.6893 3.20407 11.4929 3.00762L10.9922 2.50692C10.7957 2.31043 10.4771 2.31043 10.2806 2.50692C10.1069 2.68063 9.83445 2.70108 9.62324 2.5756C9.20746 2.32857 8.75389 2.13848 8.27327 2.01608C8.03527 1.95546 7.85701 1.74843 7.85701 1.50282ZM7.00006 9.57014C8.42023 9.57014 9.57149 8.41887 9.57149 6.99871C9.57149 5.57855 8.42023 4.42728 7.00006 4.42728C5.5799 4.42728 4.42864 5.57855 4.42864 6.99871C4.42864 8.41887 5.5799 9.57014 7.00006 9.57014Z"/>
</mask>
<path d="M8.27327 2.01608L8.02648 2.98514L8.27327 2.01608ZM9.62324 2.5756L10.134 1.71589L9.62324 2.5756ZM10.9922 2.50692L11.6993 1.79981L10.9922 2.50692ZM11.4929 3.00762L12.2 2.30051L11.4929 3.00762ZM11.4243 4.37636L12.2839 3.86545L11.4243 4.37636ZM11.9841 5.72684L12.9532 5.48001L11.9841 5.72684ZM11.9841 8.27342L11.0151 8.0266L11.9841 8.27342ZM9.62348 11.4245L9.11265 10.5648L9.62348 11.4245ZM8.27316 11.9842L8.02639 11.0151L8.27316 11.9842ZM5.72658 11.9841L5.97345 11.015L5.72658 11.9841ZM4.37636 11.4243L4.88728 10.5646L4.37636 11.4243ZM3.00761 11.4929L2.30051 12.2L3.00761 11.4929ZM2.50691 10.9922L1.79981 11.6993L2.50691 10.9922ZM2.57559 9.62324L3.4353 9.11246L2.57559 9.62324ZM2.57565 4.37692L1.71595 3.86612L2.57565 4.37692ZM3.00753 2.50719L3.71464 3.2143L3.00753 2.50719ZM5.72646 2.01621L5.47956 1.04717L5.72646 2.01621ZM6.64562 2H7.35419V0H6.64562V2ZM4.88746 3.4355C5.22227 3.23654 5.58708 3.08367 5.97336 2.98525L5.47956 1.04717C4.90468 1.19364 4.36241 1.42103 3.86573 1.71618L4.88746 3.4355ZM3.21408 3.71486L3.71464 3.2143L2.30043 1.80008L1.79986 2.30065L3.21408 3.71486ZM2.9852 5.97357C3.08359 5.58731 3.23642 5.22252 3.43535 4.88773L1.71595 3.86612C1.42085 4.36278 1.19352 4.90503 1.04709 5.47988L2.9852 5.97357ZM2 7.35441V6.64584H0V7.35441H2ZM3.4353 9.11246C3.2364 8.77768 3.08358 8.41292 2.9852 8.02669L1.04709 8.52038C1.19351 9.09519 1.42082 9.63739 1.71588 10.134L3.4353 9.11246ZM3.71472 10.7858L3.21402 10.2851L1.79981 11.6993L2.30051 12.2L3.71472 10.7858ZM5.97345 11.015C5.58706 10.9166 5.22216 10.7637 4.88728 10.5646L3.86545 12.2839C4.36225 12.5792 4.90466 12.8066 5.4797 12.9531L5.97345 11.015ZM7.35433 12H6.64548V14H7.35433V12ZM9.11265 10.5648C8.77773 10.7639 8.4128 10.9167 8.02639 11.0151L8.51993 12.9533C9.09501 12.8068 9.63747 12.5794 10.1343 12.2842L9.11265 10.5648ZM10.7858 10.2852L10.285 10.7861L11.6992 12.2003L12.2001 11.6994L10.7858 10.2852ZM11.0151 8.0266C10.9167 8.41304 10.7637 8.77798 10.5647 9.11291L12.284 10.1347C12.5793 9.63784 12.8067 9.09536 12.9532 8.52025L11.0151 8.0266ZM12 6.6457V7.35455H14V6.6457H12ZM10.5646 4.88727C10.7637 5.22222 10.9166 5.58719 11.0151 5.97366L12.9532 5.48001C12.8067 4.90486 12.5792 4.36234 12.2839 3.86545L10.5646 4.88727ZM10.2851 3.21402L10.7858 3.71473L12.2 2.30051L11.6993 1.79981L10.2851 3.21402ZM8.02648 2.98514C8.41279 3.08353 8.77762 3.23636 9.11246 3.4353L10.134 1.71589C9.6373 1.42077 9.09499 1.19343 8.52007 1.04701L8.02648 2.98514ZM8.57149 6.99871C8.57149 7.86659 7.86794 8.57014 7.00006 8.57014V10.5701C8.97251 10.5701 10.5715 8.97116 10.5715 6.99871H8.57149ZM7.00006 5.42728C7.86794 5.42728 8.57149 6.13084 8.57149 6.99871H10.5715C10.5715 5.02627 8.97251 3.42728 7.00006 3.42728V5.42728ZM5.42864 6.99871C5.42864 6.13084 6.13219 5.42728 7.00006 5.42728V3.42728C5.02762 3.42728 3.42864 5.02627 3.42864 6.99871H5.42864ZM7.00006 8.57014C6.13219 8.57014 5.42864 7.86659 5.42864 6.99871H3.42864C3.42864 8.97116 5.02762 10.5701 7.00006 10.5701V8.57014ZM8.52007 1.04701C8.67628 1.08679 8.85701 1.24263 8.85701 1.50282H6.85701C6.85701 2.25422 7.39426 2.82413 8.02648 2.98514L8.52007 1.04701ZM9.57354 1.79981C9.75724 1.6161 9.99515 1.63338 10.134 1.71589L9.11246 3.4353C9.67374 3.76878 10.4566 3.74516 10.9877 3.21402L9.57354 1.79981ZM11.6993 1.79981C11.1123 1.2128 10.1606 1.2128 9.57354 1.79981L10.9877 3.21402C10.7937 3.40806 10.4791 3.40806 10.2851 3.21402L11.6993 1.79981ZM12.2 4.42614C12.787 3.83916 12.787 2.88749 12.2 2.30051L10.7858 3.71473C10.5917 3.52065 10.5917 3.206 10.7858 3.01192L12.2 4.42614ZM12.2839 3.86545C12.3665 4.00438 12.3838 4.24238 12.2 4.42614L10.7858 3.01192C10.2546 3.54308 10.2311 4.32601 10.5646 4.88727L12.2839 3.86545ZM12.4973 5.14299C12.7575 5.14299 12.9134 5.32374 12.9532 5.48001L11.0151 5.97366C11.1761 6.60582 11.746 7.14299 12.4973 7.14299V5.14299ZM14 6.6457C14 5.81578 13.3272 5.14299 12.4973 5.14299V7.14299C12.2226 7.14299 12 6.92035 12 6.6457H14ZM12.4973 8.85727C13.3272 8.85727 14 8.18448 14 7.35455H12C12 7.07991 12.2226 6.85727 12.4973 6.85727V8.85727ZM12.9532 8.52025C12.9134 8.67651 12.7575 8.85727 12.4973 8.85727V6.85727C11.746 6.85727 11.1761 7.39443 11.0151 8.0266L12.9532 8.52025ZM12.2001 9.57392C12.3838 9.7577 12.3666 9.99573 12.284 10.1347L10.5647 9.11291C10.2311 9.67414 10.2547 10.457 10.7858 10.9881L12.2001 9.57392ZM12.2001 11.6994C12.787 11.1125 12.787 10.1609 12.2001 9.57392L10.7858 10.9881C10.5917 10.794 10.5917 10.4793 10.7858 10.2852L12.2001 11.6994ZM9.57363 12.2003C10.1606 12.7872 11.1123 12.7872 11.6992 12.2003L10.285 10.7861C10.4791 10.592 10.7938 10.592 10.9878 10.7861L9.57363 12.2003ZM10.1343 12.2842C9.99537 12.3668 9.75738 12.384 9.57363 12.2003L10.9878 10.7861C10.4567 10.255 9.67389 10.2313 9.11265 10.5648L10.1343 12.2842ZM8.85701 12.4973C8.85701 12.7576 8.67623 12.9135 8.51993 12.9533L8.02639 11.0151C7.3942 11.1761 6.85701 11.746 6.85701 12.4973H8.85701ZM7.35433 14C8.18424 14 8.85701 13.3272 8.85701 12.4973H6.85701C6.85701 12.2227 7.07967 12 7.35433 12V14ZM5.14273 12.4972C5.14273 13.3272 5.81553 14 6.64548 14V12C6.9201 12 7.14273 12.2226 7.14273 12.4972H5.14273ZM5.4797 12.9531C5.32346 12.9133 5.14273 12.7574 5.14273 12.4972H7.14273C7.14273 11.7459 6.60559 11.1761 5.97345 11.015L5.4797 12.9531ZM4.42613 12.2C4.24238 12.3838 4.00438 12.3665 3.86545 12.2839L4.88728 10.5646C4.32601 10.2311 3.54308 10.2546 3.01192 10.7858L4.42613 12.2ZM2.30051 12.2C2.88748 12.787 3.83916 12.787 4.42613 12.2L3.01192 10.7858C3.20599 10.5917 3.52065 10.5917 3.71472 10.7858L2.30051 12.2ZM1.79981 9.57354C1.21279 10.1606 1.21279 11.1123 1.79981 11.6993L3.21402 10.2851C3.40806 10.4791 3.40805 10.7937 3.21402 10.9878L1.79981 9.57354ZM1.71588 10.134C1.63338 9.99515 1.6161 9.75724 1.79981 9.57354L3.21402 10.9878C3.74516 10.4566 3.76878 9.67374 3.4353 9.11246L1.71588 10.134ZM1.50286 8.85727C1.24269 8.85727 1.08687 8.67656 1.04709 8.52038L2.9852 8.02669C2.82416 7.39449 2.25425 6.85727 1.50286 6.85727V8.85727ZM0 7.35441C0 8.18442 0.672852 8.85727 1.50286 8.85727V6.85727C1.77742 6.85727 2 7.07985 2 7.35441H0ZM1.50286 5.14299C0.672853 5.14299 0 5.81584 0 6.64584H2C2 6.92041 1.77742 7.14299 1.50286 7.14299V5.14299ZM1.04709 5.47988C1.08687 5.3237 1.24269 5.14299 1.50286 5.14299V7.14299C2.25425 7.14299 2.82416 6.60577 2.9852 5.97357L1.04709 5.47988ZM1.79986 4.42652C1.61617 4.24283 1.63346 4.00496 1.71595 3.86612L3.43535 4.88773C3.76886 4.32642 3.74525 3.54348 3.21408 3.0123L1.79986 4.42652ZM1.79986 2.30065C1.21282 2.88769 1.21282 3.83947 1.79986 4.42652L3.21408 3.0123C3.40808 3.20631 3.40808 3.52085 3.21408 3.71486L1.79986 2.30065ZM4.42622 1.80008C3.8392 1.21306 2.88745 1.21306 2.30043 1.80008L3.71464 3.2143C3.52061 3.40832 3.20604 3.40832 3.01201 3.2143L4.42622 1.80008ZM3.86573 1.71618C4.00459 1.63366 4.24251 1.61637 4.42622 1.80008L3.01201 3.2143C3.5432 3.74549 4.32616 3.76906 4.88746 3.4355L3.86573 1.71618ZM5.14273 1.50289C5.14273 1.24276 5.32341 1.08695 5.47956 1.04717L5.97336 2.98525C6.60554 2.82418 7.14273 2.25427 7.14273 1.50289H5.14273ZM7.35419 2C7.07961 2 6.85701 1.7774 6.85701 1.50282H8.85701C8.85701 0.672838 8.18418 0 7.35419 0V2ZM6.64562 0C5.8156 0 5.14273 0.672867 5.14273 1.50289H7.14273C7.14273 1.77744 6.92017 2 6.64562 2V0Z" fill="#504F5A" mask="url(#path-1-outside-1)"/>
</svg>
